<?xml version="1.0" encoding="utf-8"?>
<!-- Generator: Adobe Illustrator 16.0.0, SVG Export Plug-In . SVG Version: 6.00 Build 0)  -->
<!DOCTYPE svg PUBLIC "-//W3C//DTD SVG 1.1//EN" "http://www.w3.org/Graphics/SVG/1.1/DTD/svg11.dtd">
<svg version="1.1" id="Layer_1" xmlns="http://www.w3.org/2000/svg" xmlns:xlink="http://www.w3.org/1999/xlink" x="0px" y="0px"
	 width="61px" height="26px" viewBox="0 0 61 26" enable-background="new 0 0 61 26" xml:space="preserve">
<g>
	<path fill="#FFFFFF" d="M21,13.473c-0.228-3.644-0.521-8.382-0.521-11.005h-0.065c-0.881,2.624-1.893,5.466-3.294,9.184
		l-5.087,13.411h-1.207L6.065,11.834c-1.37-3.827-2.381-6.743-3.098-9.366H2.902C2.805,5.31,2.642,9.793,2.348,13.839L1.565,25.063
		H0L1.761,0.5h1.826L8.87,15.149c1.108,3.062,1.956,5.611,2.608,7.836h0.065c0.587-2.077,1.467-4.556,2.706-7.799L19.794,0.5h1.892
		l1.565,24.563h-1.565L21,13.473z"/>
	<path fill="#FFFFFF" d="M38.277,20.834c0,1.423,0.065,2.807,0.261,4.229H37.07l-0.261-2.697h-0.064
		C35.93,23.714,33.94,25.5,31.071,25.5c-3.556,0-4.989-2.697-4.989-4.811c0-3.973,3.293-6.561,10.598-6.451v-0.399
		c0-1.313-0.261-5.25-4.435-5.212c-1.565,0-3.195,0.437-4.5,1.457l-0.522-1.275c1.729-1.276,3.652-1.676,5.153-1.676
		c5.314,0,5.901,4.592,5.901,7.361V20.834z M36.68,15.733c-4.142-0.147-8.902,0.583-8.902,4.628c0,2.479,1.598,3.682,3.424,3.682
		c3.032,0,4.663-2.006,5.283-3.572c0.13-0.364,0.195-0.729,0.195-1.021V15.733z"/>
	<path fill="#FFFFFF" d="M42.774,13.218c0-1.894-0.033-3.753-0.131-5.647h1.468l0.065,3.79h0.098
		c0.783-2.442,2.479-4.228,4.793-4.228c0.261,0,0.522,0.036,0.75,0.109v1.64c-0.293-0.073-0.554-0.073-0.913-0.073
		c-2.185,0-3.847,2.041-4.369,5.065c-0.098,0.51-0.163,1.13-0.163,1.712v9.477h-1.598V13.218z"/>
	<path fill="#FFFFFF" d="M51.577,22.693c0.944,0.657,2.347,1.313,3.912,1.313c2.74,0,3.946-1.604,3.946-3.39
		c0-2.041-1.239-3.025-3.685-3.899c-2.838-1.021-4.239-2.66-4.239-4.737c0-2.478,1.761-4.847,5.151-4.847
		c1.533,0,2.87,0.474,3.783,1.166l-0.619,1.458c-0.522-0.401-1.663-1.129-3.457-1.129c-2.152,0-3.294,1.457-3.294,3.134
		c0,1.967,1.338,2.732,3.652,3.607C59.598,16.461,61,17.847,61,20.471c0,2.843-2.087,5.029-5.641,5.029
		c-1.663,0-3.196-0.51-4.37-1.275L51.577,22.693z"/>
</g>
</svg>
