<?xml version="1.0" encoding="utf-8"?>
<!-- Generator: Adobe Illustrator 16.0.0, SVG Export Plug-In . SVG Version: 6.00 Build 0)  -->
<!DOCTYPE svg PUBLIC "-//W3C//DTD SVG 1.1//EN" "http://www.w3.org/Graphics/SVG/1.1/DTD/svg11.dtd">
<svg version="1.1" id="Layer_1" xmlns="http://www.w3.org/2000/svg" xmlns:xlink="http://www.w3.org/1999/xlink" x="0px" y="0px"
	 width="25px" height="28px" viewBox="0 0 25 28" enable-background="new 0 0 25 28" xml:space="preserve">
<path fill="#FFFFFF" d="M10.155,3.458c1.361-0.262,2.346-1.453,2.346-2.838c0-0.208-0.024-0.417-0.069-0.621
	c1.476,0.705,2.658,1.901,3.344,3.382c0.099,0.209,0.277,0.37,0.498,0.44c5.138,1.64,8.623,6.408,8.623,11.795
	C24.896,22.452,19.343,28,12.501,28S0.104,22.452,0.104,15.618C0.104,9.683,4.319,4.581,10.155,3.458 M12.501,23.108
	c2.988,0,5.412-2.423,5.412-5.412c0-2.988-2.424-5.411-5.412-5.411c-2.991,0-5.414,2.423-5.414,5.411
	C7.087,20.686,9.51,23.108,12.501,23.108"/>
</svg>
